<svg width="81" height="80" viewBox="0 0 81 80" fill="none" xmlns="http://www.w3.org/2000/svg">
<rect x="0.75" width="80" height="80" rx="10" fill="#F5F2F3"/>
<rect x="1.75" y="1" width="78" height="78" rx="9" stroke="#3D3E98" stroke-opacity="0.5" stroke-width="2"/>
<path d="M34.6922 26C34.9521 26 35.2014 26.1032 35.3852 26.287C35.569 26.4708 35.6722 26.7201 35.6722 26.98V28.8126H46.196V26.9926C46.196 26.7327 46.2992 26.4834 46.483 26.2996C46.6668 26.1158 46.9161 26.0126 47.176 26.0126C47.4359 26.0126 47.6852 26.1158 47.869 26.2996C48.0527 26.4834 48.156 26.7327 48.156 26.9926V28.8126H51.95C52.6924 28.8126 53.4043 29.1074 53.9294 29.6322C54.4545 30.157 54.7496 30.8688 54.75 31.6112V51.2014C54.7496 51.9438 54.4545 52.6556 53.9294 53.1804C53.4043 53.7052 52.6924 54 51.95 54H29.55C28.8076 54 28.0957 53.7052 27.5706 53.1804C27.0455 52.6556 26.7504 51.9438 26.75 51.2014V31.6112C26.7504 30.8688 27.0455 30.157 27.5706 29.6322C28.0957 29.1074 28.8076 28.8126 29.55 28.8126H33.7122V26.9786C33.7126 26.7189 33.816 26.47 33.9997 26.2865C34.1835 26.1031 34.4325 26 34.6922 26ZM28.71 36.8388V51.2014C28.71 51.3117 28.7317 51.4209 28.7739 51.5229C28.8162 51.6248 28.878 51.7174 28.956 51.7954C29.034 51.8734 29.1266 51.9352 29.2285 51.9775C29.3305 52.0197 29.4397 52.0414 29.55 52.0414H51.95C52.0603 52.0414 52.1695 52.0197 52.2715 51.9775C52.3734 51.9352 52.466 51.8734 52.544 51.7954C52.622 51.7174 52.6838 51.6248 52.7261 51.5229C52.7683 51.4209 52.79 51.3117 52.79 51.2014V36.8584L28.71 36.8388ZM36.0838 46.4666V48.799H33.75V46.4666H36.0838ZM41.9162 46.4666V48.799H39.5838V46.4666H41.9162ZM47.75 46.4666V48.799H45.4162V46.4666H47.75ZM36.0838 40.8988V43.2312H33.75V40.8988H36.0838ZM41.9162 40.8988V43.2312H39.5838V40.8988H41.9162ZM47.75 40.8988V43.2312H45.4162V40.8988H47.75ZM33.7122 30.7712H29.55C29.4397 30.7712 29.3305 30.7929 29.2285 30.8351C29.1266 30.8774 29.034 30.9392 28.956 31.0172C28.878 31.0952 28.8162 31.1878 28.7739 31.2897C28.7317 31.3917 28.71 31.5009 28.71 31.6112V34.8802L52.79 34.8998V31.6112C52.79 31.5009 52.7683 31.3917 52.7261 31.2897C52.6838 31.1878 52.622 31.0952 52.544 31.0172C52.466 30.9392 52.3734 30.8774 52.2715 30.8351C52.1695 30.7929 52.0603 30.7712 51.95 30.7712H48.156V32.0718C48.156 32.3317 48.0527 32.581 47.869 32.7648C47.6852 32.9486 47.4359 33.0518 47.176 33.0518C46.9161 33.0518 46.6668 32.9486 46.483 32.7648C46.2992 32.581 46.196 32.3317 46.196 32.0718V30.7712H35.6722V32.0592C35.6722 32.3191 35.569 32.5684 35.3852 32.7522C35.2014 32.936 34.9521 33.0392 34.6922 33.0392C34.4323 33.0392 34.183 32.936 33.9992 32.7522C33.8154 32.5684 33.7122 32.3191 33.7122 32.0592V30.7712Z" fill="#3D3E98"/>
</svg>
