<svg width="81" height="80" viewBox="0 0 81 80" fill="none" xmlns="http://www.w3.org/2000/svg">
<rect x="0.75" width="80" height="80" rx="10" fill="#F5F2F3"/>
<rect x="1.75" y="1" width="78" height="78" rx="9" stroke="#3D3E98" stroke-opacity="0.5" stroke-width="2"/>
<path d="M25.7109 26.25H41.9951C42.6242 26.25 43.2305 26.469 43.7129 26.8643L43.9121 27.0439C44.4204 27.5523 44.7061 28.2421 44.7061 28.9609V31.6719H42.2451V28.7109H25.4609V39.5732H34.3428V42.0342H25.4609V48.4561H34.3428V50.917H30.6611L27.9316 53.6465L26.1914 51.9062L26.7549 51.3438L27.1816 50.917H25.7109C25.082 50.917 24.4755 50.6978 23.9932 50.3027L23.7939 50.123C23.2856 49.6147 23.0001 48.9249 23 48.2061V28.9609C23 28.3319 23.219 27.7255 23.6143 27.2432L23.7939 27.0439C24.3023 26.5356 24.992 26.25 25.7109 26.25ZM54.6709 33.6523L58.0293 42.0469V53.1367H55.5684V50.917H38.7842V53.1367H36.3232V42.0469L39.6816 33.6523H54.6709ZM53.5938 44.0146V46.4814H51.127V44.0146H53.5938ZM43.2314 44.0146V46.4814H40.7646V44.0146H43.2314ZM29.9082 44.0146V46.4814H27.4414V44.0146H29.9082ZM41.2852 36.2695L40.1006 39.2305L39.9629 39.5732H54.3896L54.252 39.2305L53.0684 36.2695L53.0049 36.1123H41.3477L41.2852 36.2695ZM55.5684 42.5215L55.5508 42.4775L55.4365 42.1914L55.374 42.0342H38.9785L38.916 42.1914L38.8018 42.4775L38.7842 42.5215V48.4561H55.5684V42.5215Z" fill="#3D3E98" stroke="#F5F2F3" stroke-width="0.5"/>
</svg>
