<svg width="138" height="81" viewBox="0 0 138 81" fill="none" xmlns="http://www.w3.org/2000/svg">
<path fill-rule="evenodd" clip-rule="evenodd" d="M48.4174 59.324L45.0124 65.2195C44.1499 66.7158 42.2289 67.23 40.7359 66.3675C39.2464 65.5085 38.7291 63.5779 39.5892 62.0888L42.9931 56.1924C43.857 54.6961 45.7766 54.1819 47.2729 55.0455C48.7659 55.9102 49.2823 57.8276 48.4174 59.324ZM55.4773 59.783C54.9864 59.4999 54.4487 59.3649 53.917 59.3649C52.8343 59.3649 51.7794 59.9267 51.2011 60.9299L45.6806 70.4902C44.817 71.9843 45.3347 73.9055 46.8273 74.7689C48.3214 75.6325 50.241 75.1183 51.1038 73.6222L56.6242 64.0619C57.4868 62.5655 56.9724 60.6479 55.4773 59.783ZM33.6098 20.7787C33.7362 20.6721 33.7189 20.4889 33.5734 20.4094L27.7211 17.1536C27.2976 16.9203 26.8397 16.9568 26.4591 17.2544C17.8045 24.0808 12.9752 36.1415 14.9757 45.9295C15.0552 46.3258 15.2747 46.5937 15.647 46.751L20.2387 48.7006C20.3925 48.7651 20.5505 48.6643 20.5505 48.496C20.6633 37.4604 25.1786 27.8775 33.6098 20.7787ZM65.1382 66.4249C64.9205 65.6121 64.4039 64.9375 63.684 64.5195C63.193 64.2376 62.6534 64.1026 62.1236 64.1026C61.0409 64.1026 59.9861 64.6644 59.4053 65.6673L54.8039 73.6391C54.0071 75.1225 54.5294 76.9875 55.9981 77.8343C56.718 78.2501 57.5608 78.3597 58.3725 78.1417C59.1842 77.9237 59.8588 77.4073 60.2768 76.6874L64.8309 68.7993C65.2467 68.0783 65.3562 67.2366 65.1382 66.4249ZM98.5412 53.6033L83.8573 45.1235C80.99 43.4652 78.3148 41.9075 74.8898 41.9075C71.8288 41.9253 69.0596 43.2788 66.3802 44.5893C62.1534 46.654 57.363 48.994 52.1917 44.7131C50.7232 43.4944 49.8839 41.6731 49.9978 39.9524C50.1039 38.3744 50.9776 36.9953 52.4606 36.0707L64.5285 28.549C61.0061 26.7974 57.7635 27.0776 54.1028 27.3964C49.269 27.8133 43.7893 28.2911 36.7118 24.3099L35.3313 23.5324C27.932 29.9101 24.0459 38.0826 23.7767 47.8381L35.4521 53.859C35.6179 53.9431 35.766 54.0559 35.8922 54.1917L38.6969 57.2087L40.2127 54.5854C41.9612 51.5575 45.8471 50.5158 48.8783 52.2643C50.5083 53.2052 51.5619 54.7655 51.9157 56.4783C53.5755 55.9286 55.453 56.0612 57.0828 57.0019C58.7136 57.9427 59.7683 59.5032 60.1223 61.2158C61.7825 60.6663 63.6605 60.7988 65.2896 61.7396C66.7537 62.5846 67.7999 63.9534 68.24 65.5924C68.2724 65.7129 68.3009 65.8334 68.3261 65.9543C69.9863 65.4042 71.8654 65.5365 73.4963 66.477C74.7021 67.1739 75.6264 68.2275 76.1603 69.496L83.238 73.5802C84.6127 74.377 86.398 73.8996 87.1916 72.5228C87.9689 71.1726 87.5268 69.4211 86.1969 68.6078L77.5315 63.6031C76.7641 63.1597 76.4999 62.1786 76.942 61.4101C77.3876 60.6405 78.3698 60.3793 79.1383 60.8216C82.4879 62.7557 85.8376 64.69 89.1874 66.6241C90.7081 67.5032 92.661 66.9801 93.5391 65.4585C94.4053 63.9596 93.8948 62.0104 92.4075 61.1264L83.9014 56.2167C83.135 55.7722 82.8706 54.7901 83.314 54.0215C83.7585 53.2528 84.7407 52.9907 85.507 53.4344C88.8148 55.3439 92.1225 57.2534 95.4302 59.1627C96.9445 60.0367 98.9066 59.512 99.7807 57.9972C100.751 56.3186 99.9952 54.6647 98.5412 53.6033ZM111.542 17.2544C111.325 17.0872 111.087 17 110.842 17C110.653 17 110.463 17.053 110.279 17.1536L104.424 20.4094C104.344 20.4547 104.318 20.4924 104.309 20.5864C104.301 20.6782 104.318 20.7189 104.39 20.7787C112.821 27.8773 117.337 37.4608 117.45 48.4965C117.45 48.6647 117.608 48.7655 117.761 48.7011L122.352 46.7515C122.723 46.5944 122.942 46.3247 123.024 45.9299C125.025 36.1419 120.195 24.081 111.542 17.2544ZM102.633 23.5028L99.7597 25.1017C95.0198 27.7381 89.736 28.2146 84.48 26.4828C79.8264 24.9501 74.9472 25.838 69.5549 29.1988L54.16 38.7968C53.5518 39.1773 53.2398 39.624 53.2035 40.168C53.1548 40.8658 53.5639 41.6775 54.2395 42.2381C57.6502 45.0626 60.4003 43.9356 64.9689 41.7029C67.8319 40.303 71.0789 38.7181 74.8686 38.6949C79.0079 38.6949 82.0006 40.3393 85.4661 42.3433L100.221 50.8641C100.967 51.2828 101.951 52.3072 102.412 53.0409L114.216 47.5805C113.885 37.9235 109.99 29.8288 102.633 23.5028ZM79.0066 74.8478L76.5054 73.4036C76.3658 74.0069 76.1362 74.5921 75.8185 75.1427L74.1189 78.0871L75.4603 78.8416C77.8102 80.1973 79.3431 79.461 79.9989 78.3253C80.5952 77.2914 80.5306 75.7747 79.0066 74.8478ZM71.8904 69.2583C70.3984 68.4052 68.4821 68.9001 67.6117 70.4052L64.2067 76.304C63.3448 77.7966 63.8614 79.7195 65.3534 80.5816C66.8497 81.4441 68.7671 80.9299 69.631 79.4358L73.0349 73.537C73.8994 72.0477 73.3764 70.1213 71.8904 69.2583Z" fill="#3D3E98"/>
</svg>
