<svg width="81" height="80" viewBox="0 0 81 80" fill="none" xmlns="http://www.w3.org/2000/svg">
<rect x="0.75" width="80" height="80" rx="10" fill="#F5F2F3"/>
<rect x="1.75" y="1" width="78" height="78" rx="9" stroke="#3D3E98" stroke-opacity="0.5" stroke-width="2"/>
<path d="M40.5259 41.7858C41.6056 41.7858 42.6444 42.1875 43.4409 42.9088L43.5962 43.0573C44.4104 43.8715 44.8686 44.9761 44.8687 46.1276C44.8687 47.2074 44.4661 48.246 43.7446 49.0426L43.5962 49.1979C42.7819 50.0122 41.6775 50.4703 40.5259 50.4703C39.4463 50.4703 38.4083 50.0676 37.6118 49.3463L37.4556 49.1979C36.6415 48.3836 36.1841 47.279 36.1841 46.1276C36.1842 45.0481 36.586 44.0099 37.3071 43.2135L37.4556 43.0573C38.2698 42.243 39.3744 41.7858 40.5259 41.7858ZM40.5259 43.9098C40.0114 43.9099 39.5152 44.0886 39.1206 44.4117L38.9575 44.5592C38.5416 44.9751 38.3082 45.5394 38.3081 46.1276C38.3081 46.6423 38.4867 47.1391 38.8101 47.5338L38.9575 47.6959C39.3734 48.1118 39.9377 48.3462 40.5259 48.3463C41.1141 48.3463 41.6783 48.1119 42.0942 47.6959C42.5102 47.28 42.7446 46.7158 42.7446 46.1276C42.7446 45.6129 42.565 45.1169 42.2417 44.7223L42.0942 44.5592C41.6783 44.1434 41.114 43.9098 40.5259 43.9098Z" fill="#3D3E98" stroke="#F5F2F3" stroke-width="0.5"/>
<path d="M47.5732 31.9932L47.6807 32.1445L47.8574 32.084L50.373 31.2266L52.8037 38.3369L52.8613 38.5059H54.0527V53.75H27V38.5059H27.6689V38.4941L28.2666 38.502L28.3555 38.5029L28.4258 38.4473L43.5547 26.3594L47.5732 31.9932ZM48.8311 34.0381L46.834 34.6768L46.8301 34.6787L37.0303 38.0186L37.1113 38.5059H50.6182L50.5049 38.1748L49.1445 34.1953L49.0645 33.9639L48.8311 34.0381ZM42.9238 29.585L34.9121 35.9844L35.1484 36.417L45.2646 32.9688L45.582 32.8604L45.3877 32.5869L43.2832 29.6348L43.1299 29.4199L42.9238 29.585ZM51.9287 43.1035L51.7617 43.0449C51.3078 42.8846 50.8901 42.6374 50.5322 42.3174L50.3828 42.1758C49.9939 41.7868 49.6969 41.3155 49.5137 40.7969L49.4541 40.6299H31.5986L31.5391 40.7959C31.3786 41.2497 31.1315 41.6676 30.8115 42.0254L30.6699 42.1748C30.2809 42.5637 29.8097 42.8609 29.291 43.0439L29.124 43.1025V49.1504L29.291 49.209C29.7451 49.3698 30.1623 49.6183 30.5205 49.9385L30.6709 50.0801C31.0603 50.4693 31.3579 50.941 31.542 51.46L31.6016 51.626H49.4541L49.5137 51.459C49.674 51.005 49.9212 50.5874 50.2412 50.2295L50.3828 50.0801C50.7718 49.6911 51.243 49.3941 51.7617 49.2109L51.9287 49.1514V43.1035Z" fill="#3D3E98" stroke="#F5F2F3" stroke-width="0.5"/>
</svg>
