<svg width="81" height="80" viewBox="0 0 81 80" fill="none" xmlns="http://www.w3.org/2000/svg">
<rect x="0.75" width="80" height="80" rx="10" fill="#F5F2F3"/>
<rect x="1.75" y="1" width="78" height="78" rx="9" stroke="#3D3E98" stroke-opacity="0.5" stroke-width="2"/>
<g clip-path="url(#clip0_745_406)">
<path d="M22.75 46.309C22.8729 46.2137 22.8571 46.0649 22.8863 45.9369C23.4462 43.4745 25.6893 41.8241 28.3135 41.947C30.6967 42.0584 32.7539 44.0124 33.0839 46.4346C33.2059 47.3297 33.0012 48.1535 32.685 48.9643C32.0159 50.6805 31.072 52.2513 30.071 53.7879C29.5551 54.5798 29.0097 55.3524 28.4647 56.1246C28.113 56.6232 27.7571 56.6196 27.4003 56.1203C25.8637 53.9706 24.4051 51.7736 23.3383 49.3416C23.0938 48.7844 22.9587 48.1925 22.75 47.6243V46.309Z" fill="#3D3E98"/>
<path d="M58.1941 31.2859C57.7672 31.7187 57.5794 31.7344 57.1198 31.3473C56.6307 30.9354 56.0751 30.8334 55.4671 30.974C54.8677 31.1126 54.3219 31.3883 53.7698 31.649C52.8862 32.0664 51.9773 32.385 50.9771 32.2605C50.4458 32.1944 50.4474 32.1825 50.4474 32.7327C50.4474 34.8544 50.4474 36.9762 50.4474 39.0979C50.4474 39.2133 50.4525 39.3295 50.4403 39.4437C50.4029 39.7961 50.115 40.0607 49.7689 40.0698C49.4464 40.0781 49.1384 39.8339 49.0723 39.5079C49.0542 39.4185 49.0569 39.3243 49.0569 39.2322C49.0561 34.435 49.0569 29.6379 49.0546 24.8407C49.0546 24.6013 49.0865 24.3796 49.2641 24.2043C49.4747 23.9968 49.7315 23.9523 49.9997 24.0484C50.2576 24.1409 50.4175 24.339 50.4383 24.6174C50.4557 24.847 50.4675 25.0809 50.4419 25.3081C50.4124 25.5684 50.5399 25.6787 50.7538 25.7673C51.2519 25.974 51.7434 25.9244 52.2399 25.7673C52.9673 25.5377 53.6355 25.1691 54.3404 24.886C54.8031 24.7001 55.2757 24.5548 55.773 24.5174C56.7516 24.4434 57.5345 24.8494 58.1945 25.5385V31.2847L58.1941 31.2859Z" fill="#3D3E98"/>
<path d="M38.6155 42.0984C38.154 42.1035 37.8283 41.7845 37.8307 41.3309C37.8335 40.8556 38.1914 40.4858 38.6462 40.4885C39.0704 40.4913 39.4137 40.8248 39.4256 41.2462C39.4386 41.6979 39.0625 42.0936 38.6151 42.0984H38.6155Z" fill="#3D3E98"/>
<path d="M45.7999 46.8834C45.8051 47.3177 45.4471 47.6879 45.021 47.6894C44.5953 47.691 44.2275 47.3224 44.2275 46.894C44.2275 46.4699 44.5985 46.1072 45.0305 46.1088C45.4487 46.1103 45.7948 46.4588 45.7999 46.8834Z" fill="#3D3E98"/>
<path d="M48.2246 49.739C48.2274 50.1533 47.8962 50.5191 47.5146 50.523C47.0393 50.5281 46.6625 50.167 46.6688 49.7118C46.6747 49.2861 47.0405 48.9274 47.4674 48.929C47.9002 48.9305 48.2215 49.2743 48.2246 49.7386V49.739Z" fill="#3D3E98"/>
<path d="M45.7667 52.0432C46.2002 52.0503 46.5539 52.4118 46.5468 52.8403C46.5397 53.2742 46.1719 53.6389 45.7525 53.6278C45.3343 53.6168 44.972 53.2396 44.9744 52.817C44.9767 52.378 45.3268 52.0357 45.7667 52.0428V52.0432Z" fill="#3D3E98"/>
<path d="M40.8185 45.1758C40.8126 44.7442 41.169 44.3851 41.6022 44.3859C42.0121 44.3867 42.376 44.7403 42.3866 45.149C42.3976 45.5755 42.0294 45.9654 41.6187 45.9618C41.1914 45.9583 40.824 45.5972 40.8181 45.1758H40.8185Z" fill="#3D3E98"/>
<path d="M44.4962 39.4118C44.4982 39.8422 44.1682 40.1844 43.7421 40.1939C43.307 40.2033 42.9506 39.8509 42.9502 39.411C42.9498 38.9837 43.2822 38.6392 43.7055 38.6285C44.1383 38.6175 44.4939 38.97 44.4962 39.4118Z" fill="#3D3E98"/>
<path d="M44.8343 53.612C44.8426 54.0542 44.5032 54.4075 44.0629 54.4161C43.6297 54.4244 43.2785 54.0999 43.2647 53.6786C43.2505 53.2509 43.6049 52.8847 44.042 52.8752C44.4768 52.8654 44.8261 53.1906 44.834 53.612H44.8343Z" fill="#3D3E98"/>
<path d="M43.0396 54.409C43.0463 54.826 42.7388 55.1662 42.3548 55.1658C41.8492 55.1658 41.4948 54.8378 41.494 54.3712C41.4936 53.9529 41.8114 53.6159 42.2229 53.5985C42.6573 53.5804 43.0318 53.9518 43.0393 54.4086L43.0396 54.409Z" fill="#3D3E98"/>
<path d="M47.4987 40.1467C47.062 40.1467 46.7041 39.7903 46.7088 39.3599C46.7131 38.9495 47.0727 38.5947 47.4853 38.5931C47.9236 38.5916 48.2753 38.9452 48.2698 39.3819C48.2643 39.8052 47.9205 40.1463 47.4987 40.1467Z" fill="#3D3E98"/>
<path d="M43.3301 45.187C43.7672 45.1791 44.1244 45.5245 44.1299 45.9608C44.1354 46.3814 43.7956 46.724 43.3667 46.7307C42.9261 46.7374 42.5662 46.3908 42.5646 45.9589C42.563 45.5391 42.9044 45.1945 43.3297 45.187H43.3301Z" fill="#3D3E98"/>
<path d="M47.2752 48.0759C47.2799 48.5134 46.9271 48.8717 46.4927 48.8706C46.0615 48.8694 45.726 48.5378 45.7209 48.1078C45.7158 47.6616 46.058 47.3123 46.4994 47.3131C46.9275 47.3139 47.2708 47.6518 47.2752 48.0759Z" fill="#3D3E98"/>
<path d="M40.4977 55.7523C40.013 55.7476 39.6633 55.4196 39.6684 54.9742C39.6735 54.5497 40.0165 54.2031 40.4335 54.2012C40.8635 54.1992 41.2235 54.5587 41.2243 54.9911C41.225 55.4054 40.8903 55.7559 40.4977 55.7523Z" fill="#3D3E98"/>
<path d="M36.709 56.5664C36.2715 56.568 35.9226 56.2423 35.912 55.8225C35.9013 55.3957 36.2648 55.0255 36.6976 55.0224C37.1256 55.0192 37.469 55.3587 37.4714 55.7879C37.4737 56.2112 37.128 56.5644 36.7086 56.566L36.709 56.5664Z" fill="#3D3E98"/>
<path d="M41.8237 38.8715C42.2455 38.866 42.6014 39.2027 42.6148 39.6197C42.629 40.0561 42.277 40.425 41.8473 40.4235C41.4224 40.4223 41.0668 40.0872 41.0519 39.6745C41.0365 39.2409 41.3862 38.877 41.8237 38.8715Z" fill="#3D3E98"/>
<path d="M32.8804 56.8418C32.4425 56.8434 32.1062 56.5225 32.0988 56.096C32.0913 55.6565 32.4358 55.3017 32.8726 55.299C33.3116 55.2966 33.6633 55.6494 33.6562 56.0854C33.6491 56.5122 33.3132 56.8399 32.8804 56.8414V56.8418Z" fill="#3D3E98"/>
<path d="M39.8183 45.2447C39.3954 45.2506 39.0417 44.9151 39.0311 44.4977C39.0201 44.0712 39.4088 43.6833 39.8443 43.6857C40.242 43.688 40.5886 44.0547 40.5945 44.48C40.6004 44.8828 40.2389 45.2388 39.8183 45.2447Z" fill="#3D3E98"/>
<path d="M38.5004 43.9992C37.99 43.9846 37.6549 43.6968 37.6565 43.275C37.6585 42.8277 38.0381 42.4717 38.4917 42.4922C38.8958 42.5103 39.2222 42.8604 39.2179 43.2707C39.2136 43.6806 38.8883 44.0106 38.5 43.9992H38.5004Z" fill="#3D3E98"/>
<path d="M38.6356 56.2251C38.167 56.2274 37.8114 55.8872 37.8134 55.4379C37.8153 55.0149 38.1331 54.694 38.5513 54.6936C38.9975 54.6932 39.3539 55.0319 39.3602 55.4619C39.3661 55.8738 39.0349 56.2227 38.6356 56.2247V56.2251Z" fill="#3D3E98"/>
<path d="M39.9834 39.3656C40.4154 39.3648 40.7521 39.6984 40.7537 40.1288C40.7553 40.5604 40.4178 40.9018 39.9905 40.9006C39.5652 40.8994 39.2183 40.5549 39.2179 40.1331C39.2179 39.7019 39.5522 39.366 39.9834 39.3652V39.3656Z" fill="#3D3E98"/>
<path d="M47.212 52.3354C46.7859 52.3413 46.4725 52.031 46.4673 51.5978C46.4622 51.1721 46.7954 50.8216 47.2183 50.8075C47.6385 50.7933 47.9693 51.106 47.9834 51.5301C47.998 51.9672 47.6511 52.3295 47.212 52.3358V52.3354Z" fill="#3D3E98"/>
<path d="M35.5135 56.0248C35.5127 56.4529 35.1957 56.7844 34.7877 56.7836C34.3735 56.7832 34.0281 56.4343 34.023 56.0118C34.0183 55.5822 34.3593 55.2266 34.7704 55.2325C35.1807 55.2388 35.5143 55.5944 35.5135 56.0248Z" fill="#3D3E98"/>
<path d="M30.3423 55.885C30.3368 55.4857 30.5522 55.2506 30.9322 55.2404C31.3803 55.2286 31.593 55.4219 31.6127 55.8567C31.6158 55.9252 31.6233 55.9941 31.6383 56.061C31.6808 56.2508 31.7659 56.4564 31.5835 56.6072C31.3638 56.7892 31.1 56.8163 30.8326 56.7159C30.5061 56.5934 30.3478 56.3186 30.3419 55.885H30.3423Z" fill="#3D3E98"/>
<path d="M45.6789 40.091C45.2765 40.0961 44.8996 39.7394 44.9067 39.3593C44.913 39.0171 45.2773 38.6954 45.6636 38.6911C46.0562 38.6868 46.4185 38.9935 46.4311 39.3404C46.4453 39.7252 46.0838 40.0855 45.6789 40.091Z" fill="#3D3E98"/>
<path d="M27.942 49.5256C26.6134 49.5288 25.5214 48.4332 25.5265 47.103C25.5316 45.7862 26.6079 44.7135 27.9294 44.7072C29.2695 44.7005 30.3619 45.7791 30.3607 47.1077C30.3595 48.4447 29.2813 49.5229 27.942 49.5256Z" fill="#F5F2F3"/>
</g>
<defs>
<clipPath id="clip0_745_406">
<rect width="35.4444" height="32.8414" fill="white" transform="translate(22.75 24)"/>
</clipPath>
</defs>
</svg>
