<svg width="80" height="80" viewBox="0 0 80 80" fill="none" xmlns="http://www.w3.org/2000/svg">
<g clip-path="url(#clip0_746_452)">
<path d="M7.5 80.25L7.50125 61.5H13.8225L14.9262 80.25H7.5ZM42.5012 7.75C59.0425 7.75 72.5012 21.2088 72.5012 37.75C72.5012 43.99 70.6012 49.9625 67.015 55.0362L57.1375 62.94C56.965 62.41 56.7175 61.9175 56.4388 61.4475C64.835 56.5088 70.0012 47.5625 70.0012 37.75C70.0012 22.5863 57.665 10.25 42.5012 10.25C27.3375 10.25 15.0013 22.5863 15.0013 37.75C15.0013 45.355 18.12 52.54 23.61 57.7288C22.9238 58.1988 22.275 58.7312 21.6687 59.325C15.8325 53.6862 12.5013 45.8925 12.5013 37.75C12.5013 21.2088 25.96 7.75 42.5012 7.75ZM42.5012 36.5C43.1912 36.5 43.7512 37.06 43.7512 37.75C43.7512 38.44 43.1912 39 42.5012 39C41.8112 39 41.2512 38.44 41.2512 37.75C41.2512 37.06 41.8112 36.5 42.5012 36.5ZM41.8363 41.4325C42.0525 41.4712 42.2737 41.5 42.5012 41.5C44.5687 41.5 46.2512 39.8175 46.2512 37.75C46.2512 36.1225 45.2025 34.7475 43.7512 34.23V22.7487H41.2512V34.23C39.8 34.7475 38.7512 36.1225 38.7512 37.75C38.7512 38.6825 39.1062 39.5262 39.6712 40.1825L31.4162 54.63L32.58 55.295C32.265 55.2787 31.9525 55.25 31.6363 55.25C29.635 55.25 27.7012 55.67 25.9212 56.45C25.8587 56.395 25.795 56.34 25.7337 56.285L28.3588 53.66L26.5913 51.8925L23.9675 54.5162C20.1062 50.2525 17.8238 44.795 17.5363 39H21.2512V36.5H17.565C17.8613 30.5513 20.2362 25.1537 23.99 21.0062L26.59 23.6063L28.3575 21.8387L25.7575 19.2387C29.905 15.4838 35.3012 13.11 41.2512 12.8138V16.5H43.7512V12.8138C49.7 13.11 55.0975 15.4838 59.2438 19.2387L56.6425 21.84L58.41 23.6075L61.0112 21.0062C64.7662 25.1525 67.1413 30.55 67.4375 36.5H63.7512V39H67.4587C67.1687 44.8538 64.865 50.305 61.0425 54.5237L58.4113 51.8925L56.6437 53.66L59.2712 56.2875C57.9187 57.5088 56.4188 58.59 54.7913 59.51C53.4888 58.4213 51.8275 57.75 50.0012 57.75H44.6163C42.5438 57.75 40.5162 57.36 38.59 56.5887C37.0612 55.9775 35.475 55.59 33.8562 55.3963L41.8363 41.4325ZM17.2825 77.75L16.4 62.75H18.8375L19.9075 77.75H17.2825ZM71.7462 60.3312L62.1637 68.6375C57.2437 72.9012 50.9487 75.25 44.4375 75.25C42.4025 75.25 40.3613 75.0475 38.3713 74.65C33.2863 73.6313 27.94 73.785 23.0137 75.4275L22.2662 75.6762L21.3713 63.1475L23.3275 61.1912C25.5463 58.9725 28.4975 57.75 31.6363 57.75C33.7088 57.75 35.7362 58.14 37.6625 58.9113C39.885 59.8 42.225 60.25 44.6163 60.25H50.0012C52.325 60.25 54.265 61.8488 54.8238 64H42.5012V66.5H56.2512C56.53 66.5 56.8062 66.4087 57.0325 66.2262L68.59 56.9787C68.9763 56.67 69.46 56.5 69.955 56.5H70.3188C71.5225 56.5 72.5012 57.4787 72.5012 58.6825C72.5012 59.3162 72.2262 59.9162 71.7462 60.3312Z" fill="#3D3E98"/>
</g>
<defs>
<clipPath id="clip0_746_452">
<rect width="80" height="80" fill="white"/>
</clipPath>
</defs>
</svg>
