<svg width="80" height="80" viewBox="0 0 80 80" fill="none" xmlns="http://www.w3.org/2000/svg">
<circle cx="39.9996" cy="44.4993" r="35.5" fill="#3D3E98"/>
<path d="M24.0622 28.5617C28.3193 24.3046 33.9793 21.9602 39.9997 21.9602C44.6036 21.9602 49.0547 23.3607 52.7981 25.9461L49.9082 26.2425L50.2135 29.2187L57.9924 28.4208L57.1946 20.6419L54.2182 20.9472L54.4769 23.4695C50.2406 20.5497 45.2064 18.9683 39.9997 18.9683C33.1801 18.9683 26.7688 21.624 21.9467 26.4461C17.1245 31.2682 14.4688 37.6796 14.4688 44.4991C14.4688 49.6044 15.9712 54.5324 18.8134 58.75L21.2944 57.078C21.26 57.0268 21.2266 56.9753 21.1926 56.9239C18.751 53.2363 17.4607 48.9446 17.4607 44.4991C17.4607 38.4788 19.8052 32.8187 24.0622 28.5617Z" fill="white"/>
<path d="M61.1862 30.249L58.705 31.921C58.7394 31.9721 58.7728 32.0238 58.8068 32.0751C61.2483 35.7627 62.5387 40.0544 62.5387 44.4999C62.5387 50.5203 60.1943 56.1803 55.9372 60.4373C51.6802 64.6944 46.0203 67.0388 39.9998 67.0388C35.3958 67.0388 30.9447 65.6383 27.2013 63.0529L30.0912 62.7565L29.7859 59.7803L22.007 60.5781L22.8049 68.3571L25.7812 68.0518L25.5225 65.5295C29.7589 68.4493 34.7932 70.0307 39.9998 70.0307C46.8193 70.0307 53.2306 67.375 58.0529 62.5529C62.875 57.7308 65.5306 51.3194 65.5306 44.4999C65.5306 39.3945 64.0284 34.4666 61.1862 30.249Z" fill="white"/>
<path d="M26.9336 47.6398L28.8704 45.8498C30.3376 44.4999 30.6164 43.5902 30.6164 42.5925C30.6164 40.6851 28.9877 39.4673 26.6255 39.4673C24.6007 39.4673 23.1482 40.3183 22.3706 41.6095L24.5274 42.8126C24.9382 42.1524 25.6132 41.8149 26.3615 41.8149C27.2418 41.8149 27.682 42.2111 27.682 42.8714C27.682 43.2969 27.5646 43.7664 26.7429 44.5294L22.8987 48.1241V49.9435H30.8952V47.6399L26.9336 47.6398Z" fill="white"/>
<path d="M40.1249 47.9772H41.6508V45.6736H40.1249V43.9277H37.3811V45.6736H35.2977L39.4792 39.6726H36.4714L31.8643 46.0844V47.9772H37.2931V49.9433H40.1249V47.9772Z" fill="white"/>
<path d="M44.2927 51.4105L49.1344 37.5891H46.6549L41.813 51.4105H44.2927Z" fill="white"/>
<path d="M51.5993 43.5605V41.9759H54.299L50.8364 49.943H54.0056L57.6297 41.4917V39.6724H49.1196V43.5605H51.5993Z" fill="white"/>
</svg>
