<svg width="80" height="80" viewBox="0 0 80 80" fill="none" xmlns="http://www.w3.org/2000/svg">
<path d="M40 13.0357C40.3552 13.0357 40.6958 12.8946 40.947 12.6434C41.1981 12.3923 41.3392 12.0516 41.3392 11.6964V6.33929C41.3392 5.98409 41.1981 5.64343 40.947 5.39227C40.6958 5.1411 40.3552 5 40 5C39.6448 5 39.3041 5.1411 39.0529 5.39227C38.8018 5.64343 38.6607 5.98409 38.6607 6.33929V11.6964C38.6607 12.0516 38.8018 12.3923 39.0529 12.6434C39.3041 12.8946 39.6448 13.0357 40 13.0357Z" fill="#3D3E98"/>
<path d="M20.1128 20.4889C20.2363 20.6168 20.3841 20.7188 20.5475 20.789C20.7109 20.8592 20.8866 20.8961 21.0645 20.8977C21.2423 20.8992 21.4186 20.8653 21.5832 20.798C21.7478 20.7307 21.8974 20.6312 22.0231 20.5055C22.1489 20.3797 22.2483 20.2302 22.3156 20.0656C22.383 19.901 22.4169 19.7246 22.4153 19.5468C22.4138 19.369 22.3768 19.1932 22.3066 19.0298C22.2365 18.8664 22.1344 18.7187 22.0065 18.5951L18.2182 14.8068C18.0947 14.6789 17.9469 14.5769 17.7835 14.5067C17.6201 14.4365 17.4443 14.3995 17.2665 14.398C17.0887 14.3965 16.9123 14.4303 16.7477 14.4977C16.5831 14.565 16.4336 14.6645 16.3079 14.7902C16.1821 14.916 16.0827 15.0655 16.0153 15.2301C15.948 15.3947 15.9141 15.571 15.9156 15.7489C15.9172 15.9267 15.9541 16.1024 16.0243 16.2658C16.0945 16.4292 16.1965 16.577 16.3245 16.7006L20.1128 20.4889Z" fill="#3D3E98"/>
<path d="M13.2143 37.1428H7.85711C7.50191 37.1428 7.16126 37.2839 6.91009 37.5351C6.65893 37.7863 6.51782 38.1269 6.51782 38.4821C6.51782 38.8373 6.65893 39.178 6.91009 39.4291C7.16126 39.6803 7.50191 39.8214 7.85711 39.8214H13.2143C13.5695 39.8214 13.9101 39.6803 14.1613 39.4291C14.4124 39.178 14.5535 38.8373 14.5535 38.4821C14.5535 38.1269 14.4124 37.7863 14.1613 37.5351C13.9101 37.2839 13.5695 37.1428 13.2143 37.1428Z" fill="#3D3E98"/>
<path d="M20.1128 56.4756L16.3245 60.2639C16.1965 60.3874 16.0945 60.5352 16.0243 60.6986C15.9541 60.862 15.9172 61.0377 15.9156 61.2156C15.9141 61.3934 15.948 61.5697 16.0153 61.7343C16.0827 61.8989 16.1821 62.0485 16.3079 62.1742C16.4336 62.3 16.5831 62.3994 16.7477 62.4668C16.9123 62.5341 17.0887 62.568 17.2665 62.5664C17.4443 62.5649 17.6201 62.5279 17.7835 62.4578C17.9469 62.3876 18.0947 62.2855 18.2182 62.1576L22.0065 58.3693C22.2505 58.1167 22.3855 57.7784 22.3824 57.4273C22.3794 57.0761 22.2385 56.7402 21.9902 56.4919C21.7419 56.2436 21.406 56.1027 21.0548 56.0997C20.7037 56.0966 20.3654 56.2316 20.1128 56.4756Z" fill="#3D3E98"/>
<path d="M61.7818 14.8068L57.9935 18.5951C57.8656 18.7187 57.7635 18.8664 57.6934 19.0298C57.6232 19.1932 57.5862 19.369 57.5847 19.5468C57.5831 19.7246 57.617 19.901 57.6844 20.0656C57.7517 20.2302 57.8511 20.3797 57.9769 20.5055C58.1026 20.6312 58.2522 20.7307 58.4168 20.798C58.5814 20.8653 58.7577 20.8992 58.9355 20.8977C59.1134 20.8961 59.2891 20.8592 59.4525 20.789C59.6159 20.7188 59.7637 20.6168 59.8872 20.4889L63.6755 16.7006C63.8035 16.577 63.9055 16.4292 63.9757 16.2658C64.0459 16.1024 64.0828 15.9267 64.0844 15.7489C64.0859 15.571 64.052 15.3947 63.9847 15.2301C63.9173 15.0655 63.8179 14.916 63.6921 14.7902C63.5664 14.6645 63.4169 14.565 63.2523 14.4977C63.0877 14.4303 62.9113 14.3965 62.7335 14.398C62.5557 14.3995 62.3799 14.4365 62.2165 14.5067C62.0531 14.5769 61.9053 14.6789 61.7818 14.8068Z" fill="#3D3E98"/>
<path d="M59.887 56.4756C59.6344 56.2316 59.2961 56.0966 58.945 56.0997C58.5938 56.1027 58.2579 56.2436 58.0096 56.4919C57.7613 56.7402 57.6204 57.0761 57.6174 57.4273C57.6143 57.7784 57.7493 58.1167 57.9933 58.3693L61.7816 62.1576C62.0342 62.4016 62.3725 62.5366 62.7237 62.5335C63.0748 62.5305 63.4107 62.3896 63.659 62.1413C63.9073 61.893 64.0482 61.5571 64.0512 61.2059C64.0543 60.8548 63.9193 60.5165 63.6753 60.2639L59.887 56.4756Z" fill="#3D3E98"/>
<path d="M72.1428 37.1428H66.7857C66.4305 37.1428 66.0898 37.2839 65.8387 37.5351C65.5875 37.7863 65.4464 38.1269 65.4464 38.4821C65.4464 38.8373 65.5875 39.178 65.8387 39.4291C66.0898 39.6803 66.4305 39.8214 66.7857 39.8214H72.1428C72.498 39.8214 72.8387 39.6803 73.0899 39.4291C73.341 39.178 73.4821 38.8373 73.4821 38.4821C73.4821 38.1269 73.341 37.7863 73.0899 37.5351C72.8387 37.2839 72.498 37.1428 72.1428 37.1428Z" fill="#3D3E98"/>
<path d="M29.2857 71.9642C29.2864 72.6744 29.5688 73.3553 30.071 73.8575C30.5732 74.3596 31.2541 74.6421 31.9642 74.6428H34.6428V77.3214C34.6435 78.0315 34.926 78.7124 35.4281 79.2146C35.9303 79.7168 36.6112 79.9992 37.3214 79.9999H42.6785C43.3887 79.9992 44.0696 79.7168 44.5718 79.2146C45.074 78.7124 45.3564 78.0315 45.3571 77.3214V74.6428H48.0357C48.7459 74.6421 49.4268 74.3596 49.9289 73.8575C50.4311 73.3553 50.7135 72.6744 50.7142 71.9642V69.2856H29.2857V71.9642Z" fill="#3D3E98"/>
<path d="M29.2857 63.9285H50.7142V66.607H29.2857V63.9285Z" fill="#3D3E98"/>
<path d="M55.1808 21.513C52.7912 19.3584 49.9689 17.7393 46.9028 16.764C43.8367 15.7886 40.5977 15.4796 37.4025 15.8576C32.5797 16.4084 28.0595 18.487 24.5023 21.7897C20.945 25.0925 18.5372 29.4462 17.6305 34.2148C16.7238 38.9835 17.3659 43.9171 19.4628 48.2949C21.5597 52.6727 25.0017 56.2651 29.2857 58.5474V61.2496H38.6607V55.1078L35.0353 51.4822C34.7913 51.2296 34.6563 50.8913 34.6594 50.5401C34.6624 50.189 34.8033 49.8531 35.0516 49.6047C35.2999 49.3564 35.6358 49.2156 35.987 49.2125C36.3381 49.2095 36.6764 49.3445 36.929 49.5884L40 52.6593L43.071 49.5884C43.3236 49.3445 43.6619 49.2095 44.013 49.2125C44.3642 49.2156 44.7001 49.3564 44.9484 49.6047C45.1967 49.8531 45.3376 50.189 45.3406 50.5401C45.3437 50.8913 45.2087 51.2296 44.9647 51.4822L41.3393 55.1078V61.2496H50.7143V58.5481C53.9467 56.8265 56.7157 54.3498 58.7858 51.3287C60.8558 48.3075 62.1658 44.8312 62.6043 41.1952C63.0428 37.5592 62.5969 33.8711 61.3045 30.4444C60.012 27.0177 57.9113 23.9537 55.1808 21.513Z" fill="#3D3E98"/>
</svg>
