<svg width="58" height="80" viewBox="0 0 58 80" fill="none" xmlns="http://www.w3.org/2000/svg">
<path d="M41.8303 17.8176V16.5339C33.3122 15.1837 24.687 15.1837 16.1689 16.5339V17.8176C24.6882 16.8714 33.311 16.8714 41.8303 17.8176ZM44.9065 19.2372C45.41 19.8392 45.3 21.5837 44.4934 22.6114C44.0597 23.1639 43.5567 23.3505 42.9641 23.1794C43.2742 21.8869 43.4519 20.5672 43.4887 19.259C44.0069 19.0205 44.6017 18.8727 44.9065 19.2372ZM15.6199 14.9331L11.8689 11.2601C11.6082 11.0049 11.4977 10.6918 11.5404 10.3296C11.583 9.96727 11.7632 9.68844 12.076 9.50077L26.9174 0.595496C27.5791 0.198499 28.2894 0 28.9998 0C29.7103 0 30.4204 0.198499 31.0821 0.595496L45.9235 9.50077C46.2361 9.68827 46.4165 9.96727 46.459 10.3294C46.5016 10.6918 46.3911 11.0049 46.1305 11.2599L42.3795 14.9331C33.4985 13.4936 24.5005 13.4936 15.6199 14.9331ZM15.0352 23.1794C14.4489 23.3487 13.9501 23.1672 13.5195 22.6284C12.7047 21.6089 12.5855 19.8572 13.0878 19.2434C13.3933 18.8702 13.9974 19.0237 14.5106 19.2592C14.5474 20.5674 14.7252 21.8869 15.0352 23.1794ZM27.748 45.4389C25.674 45.581 23.6946 46.073 21.8686 46.8569L17.3315 37.0839L20.4523 36.0548L27.7479 45.4389H27.748ZM10.9356 61.9356H0.499998V49.7902C0.499998 45.3764 3.33438 41.6999 7.8972 40.1952L15.7382 37.6094L20.3687 47.5837C15.1547 50.4172 11.4785 55.7342 10.9356 61.9356ZM37.631 47.5837L42.2616 37.6094L50.1028 40.1952C54.6654 41.6997 57.5 45.3764 57.5 49.7902V61.9356H47.0643C46.5213 55.7342 42.8451 50.4174 37.6311 47.5837H37.631ZM40.8223 19.3827C37.5813 22.2537 33.3607 23.8733 28.9998 23.8733C24.639 23.8733 20.4185 22.2537 17.1775 19.3827C25.0313 18.568 32.9687 18.568 40.8223 19.3827ZM30.2516 45.4389L37.5471 36.0548L40.668 37.0839L36.1309 46.8569C34.3049 46.073 32.3257 45.581 30.2514 45.4389H30.2516ZM29 34.0228C21.8186 34.0228 17.1168 27.5132 16.2974 20.8259C19.8107 23.8423 24.3319 25.54 29 25.54C33.6681 25.54 38.1893 23.8425 41.7026 20.8259C40.8832 27.5132 36.1814 34.0228 29 34.0228ZM21.758 33.4606C23.8067 34.8539 26.2411 35.6894 29 35.6894C31.7227 35.6894 34.1295 34.8753 36.1614 33.5148L36.3712 34.8524L29 44.3337L21.6136 34.8329L21.758 33.4608V33.4606ZM29 60.4971C30.6728 60.4971 32.0335 61.8581 32.0335 63.5308C32.0335 65.2034 30.6726 66.5644 29 66.5644C27.3274 66.5644 25.9665 65.2036 25.9665 63.5308C25.9665 61.8579 27.3274 60.4971 29 60.4971ZM12.5313 63.5308C12.5313 72.6119 19.9192 80 29 80C38.0808 80 45.4687 72.6119 45.4687 63.5308C45.4687 54.4497 38.0808 47.0615 29 47.0615C19.9192 47.0615 12.5313 54.4497 12.5313 63.5308ZM15.2781 61.2811C15.8024 58.0608 17.4615 55.111 19.9499 52.9752C22.4659 50.8155 25.68 49.6262 28.9998 49.6262C32.3197 49.6262 35.5339 50.8155 38.05 52.9752C40.5384 55.1112 42.1976 58.061 42.7218 61.2811C42.7609 61.5223 42.6924 61.7686 42.5341 61.9548C42.3758 62.1409 42.1436 62.2483 41.8993 62.2483H33.5208C33.6366 62.6563 33.7001 63.0861 33.7001 63.5306C33.7001 63.9751 33.6368 64.4049 33.5208 64.8129H41.9C42.1443 64.8129 42.3765 64.9203 42.5348 65.1064C42.6931 65.2926 42.7616 65.5389 42.7224 65.7801C41.762 71.6817 37.1512 76.2922 31.2494 77.2528C31.2047 77.26 31.1601 77.2637 31.1156 77.2637C30.9193 77.2637 30.7274 77.1942 30.5758 77.0652C30.3896 76.9068 30.2823 76.6747 30.2823 76.4304V68.0516C29.8743 68.1674 29.4445 68.2309 29 68.2309C28.5555 68.2309 28.1255 68.1676 27.7177 68.0516V76.4304C27.7177 76.6747 27.6104 76.9068 27.4242 77.0652C27.2724 77.1942 27.0807 77.2637 26.8844 77.2637C26.8399 77.2637 26.7951 77.2602 26.7506 77.2528C20.8487 76.2922 16.238 71.6815 15.2776 65.7801C15.2384 65.5389 15.3069 65.2926 15.4652 65.1064C15.6235 64.9203 15.8557 64.8129 16.1 64.8129H24.4792C24.3634 64.4049 24.2999 63.9753 24.2999 63.5306C24.2999 63.0859 24.3632 62.6561 24.4792 62.2483H16.1007C15.8564 62.2483 15.6242 62.1409 15.4659 61.9548C15.3076 61.7686 15.2391 61.5223 15.2782 61.2811H15.2781ZM28.9998 51.2928C34.6979 51.2928 39.5467 55.1438 40.88 60.5816H32.6562C31.7939 59.5145 30.4756 58.8303 29 58.8303C27.5244 58.8303 26.2061 59.5145 25.3438 60.5816H17.12C18.4533 55.1438 23.3019 51.2928 29 51.2928H28.9998Z" fill="#3D3E98"/>
</svg>
