<svg width="68" height="80" viewBox="0 0 68 80" fill="none" xmlns="http://www.w3.org/2000/svg">
<path d="M60.8197 24.4788C60.7869 22.7509 60.7555 21.1186 60.7555 19.5394C60.7555 18.3023 59.7528 17.2993 58.5154 17.2993C48.9349 17.2993 41.6406 14.546 35.5605 8.6343C34.6907 7.78842 33.3066 7.78872 32.4371 8.6343C26.3576 14.546 19.0645 17.2993 9.4847 17.2993C8.24753 17.2993 7.24453 18.3023 7.24453 19.5394C7.24453 21.1189 7.21347 22.7518 7.18032 24.48C6.87326 40.5602 6.45271 62.5829 33.2651 71.8766C33.5029 71.959 33.7508 72.0002 33.9987 72.0002C34.2466 72.0002 34.4948 71.959 34.7323 71.8766C61.5468 62.5826 61.1268 40.5594 60.8197 24.4788Z" fill="#3D3E98"/>
<path d="M41.7132 32.2182L36.3071 37.624L30.901 43.0298L26.2871 38.416C25.4123 37.5414 23.9938 37.5414 23.1192 38.416C22.2444 39.2911 22.2444 40.7093 23.1192 41.5842L29.317 47.7819C29.7543 48.2192 30.3278 48.4379 30.901 48.4379C31.4742 48.4379 32.0477 48.2192 32.4849 47.7819L44.8808 35.3864C45.756 34.5115 45.756 33.093 44.8811 32.2185C44.0066 31.3436 42.5881 31.3433 41.7132 32.2182Z" fill="white"/>
</svg>
